<svg width="661" height="226" viewBox="0 0 661 226" fill="none" xmlns="http://www.w3.org/2000/svg">
<g filter="url(#filter0_d_246_325)">
<path d="M0.78175 41.112H59.4058V47.192H0.78175V41.112ZM2.57375 4.76H57.1018V10.584H2.57375V4.76ZM37.5818 37.4H45.0058V53.4C45.0058 56.856 44.3018 58.712 41.7418 59.736C39.1178 60.696 35.5338 60.76 30.6058 60.76C30.3498 58.776 29.3898 55.96 28.4298 54.104C31.5018 54.232 35.2138 54.232 36.2378 54.232C37.2618 54.168 37.5818 53.912 37.5818 53.144V37.4ZM26.1898 0.663998H33.7418V35.16H26.1898V0.663998ZM11.0218 49.368L16.2698 44.952C19.7898 47.192 24.2698 50.584 26.3178 53.08L20.6858 57.944C18.7658 55.448 14.5417 51.8 11.0218 49.368ZM14.8618 24.28V26.712H45.5818V24.28H14.8618ZM14.8618 17.496V19.928H45.5818V17.496H14.8618ZM7.62975 12.888H53.1338V31.384H7.62975V12.888ZM39.1178 32.408L43.5978 28.952C48.3338 30.872 53.9658 34.2 57.0378 36.568L52.4298 40.472C49.4218 37.912 43.7898 34.392 39.1178 32.408ZM3.53375 33.752C15.3098 33.816 34.1898 33.752 51.8538 33.56L51.5338 38.296C34.3818 38.808 16.0778 39.128 3.78975 39.256L3.53375 33.752ZM81.6778 39.832H138.766V46.104H81.6778V39.832ZM81.8058 11.096H138.51V17.432H81.8058V11.096ZM84.4298 22.552H136.078V28.568H84.4298V22.552ZM87.6298 31.384H133.07V36.952H87.6298V31.384ZM106.19 25.624H113.806V60.76H106.19V25.624ZM100.622 0.599998H107.79V14.104H100.622V0.599998ZM112.462 0.599998H119.758V13.656H112.462V0.599998ZM104.782 42.648L110.798 45.336C104.718 51.992 94.4778 57.432 84.6218 59.992C83.5978 58.136 81.3578 55.192 79.6938 53.592C89.3578 51.736 99.5338 47.512 104.782 42.648ZM115.342 42.456C120.526 47.512 130.51 51.48 140.494 53.144C138.766 54.744 136.462 57.944 135.31 60.056C125.198 57.496 115.406 52.056 109.39 44.824L115.342 42.456ZM127.182 1.112L135.246 3.032C133.198 6.552 131.022 10.008 129.358 12.376L123.15 10.456C124.622 7.832 126.286 3.928 127.182 1.112ZM118.734 14.872L126.862 16.728C125.134 19.8 123.47 22.616 122.126 24.664L115.598 22.808C116.75 20.504 118.094 17.24 118.734 14.872ZM86.4138 3.16L93.0058 0.919998C94.8618 3.672 96.9738 7.512 97.8698 10.008L90.8938 12.504C90.1898 10.008 88.1418 6.104 86.4138 3.16ZM94.5417 17.496L101.966 16.344C103.054 18.136 104.27 20.632 104.782 22.36L96.9738 23.704C96.5898 22.04 95.5018 19.352 94.5417 17.496ZM179.79 22.232L218.766 17.048L219.854 24.344L180.942 29.592L179.79 22.232ZM203.918 4.696L209.678 1.112C213.006 4.184 217.038 8.472 218.83 11.48L212.686 15.448C211.086 12.504 207.182 7.96 203.918 4.696ZM176.27 1.176L183.566 3.608C178.766 14.936 170.958 26.776 162.958 34.136C162.19 32.28 160.014 28.184 158.67 26.328C165.582 20.376 172.302 10.84 176.27 1.176ZM169.614 19.544L177.486 11.736L177.55 11.864V60.632H169.614V19.544ZM191.758 1.624H199.566C200.014 29.016 203.726 50.264 211.47 51.352C212.942 51.48 213.774 48.152 214.222 41.112C215.694 42.712 219.15 44.76 220.558 45.464C218.894 57.88 215.438 60.824 211.854 60.632C196.686 59.224 192.91 36.504 191.758 1.624ZM262.158 51.736H299.982V58.84H262.158V51.736ZM271.758 19.608H290.062V26.52H271.758V19.608ZM271.758 35.544H290.062V42.456H271.758V35.544ZM268.11 3.864H294.478V55.832H286.67V10.968H275.534V55.832H268.11V3.864ZM249.742 6.616H257.038V60.696H249.742V6.616ZM240.142 18.648H265.038V25.816H240.142V18.648ZM250.19 21.528L254.67 23.512C252.238 32.664 247.822 44.056 242.958 50.392C242.19 48.152 240.526 44.952 239.31 43.032C243.726 37.912 248.206 28.632 250.19 21.528ZM261.326 1.24L265.614 7.512C258.958 9.944 250.19 11.544 242.702 12.44C242.382 10.712 241.422 8.152 240.654 6.488C247.95 5.4 256.014 3.416 261.326 1.24ZM257.038 26.584C258.702 28.184 264.526 35.16 265.806 36.888L261.39 42.968C259.79 39.448 255.758 32.6 253.71 29.656L257.038 26.584ZM376.618 0.599998H384.81V12.248H376.618V0.599998ZM353.642 6.36H408.362V21.528H400.17V13.464H361.45V21.528H353.642V6.36ZM374.314 15L382.378 16.728C377.514 27.032 370.986 39.768 366.378 47.768L358.314 45.592C363.114 37.784 369.898 24.856 374.314 15ZM390.442 29.656L399.146 30.808C393.514 50.456 380.074 57.624 358.122 60.824C357.418 58.968 355.178 55.512 353.77 53.784C374.762 51.736 386.986 46.04 390.442 29.656ZM352.362 24.536H409.514V31.768H352.362V24.536ZM363.114 44.248L368.682 38.936C381.034 42.328 397.994 48.856 406.954 54.36L400.746 60.632C392.682 55.256 376.042 48.088 363.114 44.248ZM447.914 18.968H455.914V49.56C455.914 52.696 456.426 53.144 459.434 53.144C460.778 53.144 466.538 53.144 468.202 53.144C471.338 53.144 471.85 51.032 472.362 40.984C474.09 42.392 477.354 43.8 479.53 44.312C478.634 56.344 476.522 60.12 468.842 60.12C467.114 60.12 460.074 60.12 458.41 60.12C450.218 60.12 447.914 57.624 447.914 49.56V18.968ZM448.17 6.808L453.162 0.855999C460.714 3.544 469.546 8.344 474.666 12.056L469.546 18.84C464.682 14.744 455.722 9.752 448.17 6.808ZM436.394 23.512L443.946 25.048C442.986 33.944 441.322 43.8 437.098 50.072L429.93 45.976C433.706 40.472 435.562 32.088 436.394 23.512ZM473.258 24.536L480.298 21.016C485.802 28.056 490.41 37.464 491.946 44.184L484.138 48.024C482.858 41.432 478.378 31.576 473.258 24.536ZM530.602 22.232L569.578 17.048L570.666 24.344L531.754 29.592L530.602 22.232ZM554.73 4.696L560.49 1.112C563.818 4.184 567.85 8.472 569.642 11.48L563.498 15.448C561.898 12.504 557.994 7.96 554.73 4.696ZM527.082 1.176L534.378 3.608C529.578 14.936 521.77 26.776 513.77 34.136C513.002 32.28 510.826 28.184 509.482 26.328C516.394 20.376 523.114 10.84 527.082 1.176ZM520.426 19.544L528.298 11.736L528.362 11.864V60.632H520.426V19.544ZM542.57 1.624H550.378C550.826 29.016 554.538 50.264 562.282 51.352C563.754 51.48 564.586 48.152 565.034 41.112C566.506 42.712 569.962 44.76 571.37 45.464C569.706 57.88 566.25 60.824 562.666 60.632C547.498 59.224 543.722 36.504 542.57 1.624ZM607.786 53.464H639.018V59.096H607.786V53.464ZM616.938 14.104H624.362V21.784H616.938V14.104ZM593.322 18.52H649.002V31.256H641.514V24.28H600.554V31.256H593.322V18.52ZM607.53 26.968H638.89V41.304H607.53V35.8H631.21V32.472H607.53V26.968ZM607.85 44.184H643.754V60.824H636.074V49.816H607.85V44.184ZM603.306 26.968H610.602V60.888H603.306V26.968ZM599.786 5.144H619.946V11.16H599.786V5.144ZM625.706 5.144H650.538V11.16H625.706V5.144ZM600.042 0.151997L607.21 2.072C604.714 7.832 600.618 13.656 596.842 17.304C595.37 16.152 592.298 14.104 590.57 13.208C594.41 10.008 598.058 5.016 600.042 0.151997ZM626.09 0.151997L633.386 1.944C631.082 7.448 627.114 12.76 623.274 16.088C621.738 14.936 618.474 13.272 616.554 12.44C620.65 9.496 624.234 4.824 626.09 0.151997ZM602.154 9.816L608.682 8.088C610.282 10.264 612.074 13.336 612.842 15.384L605.93 17.368C605.354 15.384 603.69 12.12 602.154 9.816ZM630.762 10.008L637.482 8.216C639.338 10.328 641.578 13.4 642.602 15.448L635.498 17.432C634.666 15.512 632.554 12.248 630.762 10.008ZM15.612 187.176C21.82 185.896 31.036 183.592 39.676 181.416L40.636 188.776C32.764 190.888 24.252 193.128 17.66 194.856L15.612 187.176ZM16.252 166.824H39.612V174.12H16.252V166.824ZM24.572 154.664H32.316V205.928C32.316 209.704 31.612 211.624 29.436 212.84C27.196 214.056 24.124 214.248 19.452 214.248C19.26 212.2 18.236 209 17.276 207.016C19.772 207.08 22.524 207.08 23.356 207.08C24.252 207.08 24.572 206.76 24.572 205.864V154.664ZM40.636 159.528H75.452V167.208H40.636V159.528ZM56.892 162.28H65.212V204.776C65.212 209.192 64.252 211.56 61.308 212.84C58.364 214.248 54.076 214.376 48.06 214.376C47.676 212.008 46.204 208.168 44.988 205.992C49.02 206.248 53.756 206.248 55.164 206.184C56.444 206.184 56.892 205.8 56.892 204.648V162.28ZM121.66 161.896H152.06V168.424H121.66V161.896ZM113.276 173.8H154.684V180.2H113.276V173.8ZM120.764 155.304L127.868 156.904C125.692 163.496 121.916 169.832 118.076 173.928C116.604 172.776 113.404 171.048 111.612 170.216C115.644 166.632 118.908 160.936 120.764 155.304ZM130.428 154.664H138.044V178.088H130.428V154.664ZM111.228 179.624V203.176H103.74V186.728H96.252V179.624H111.228ZM111.228 199.848C113.788 204.072 118.652 205.928 125.308 206.184C132.796 206.504 147.324 206.312 155.964 205.608C155.132 207.4 153.852 211.112 153.532 213.416C145.788 213.8 132.86 213.928 125.18 213.608C117.308 213.288 111.996 211.432 107.836 206.44C105.02 208.936 102.14 211.368 98.684 214.184L94.908 206.184C97.788 204.392 101.244 202.152 104.188 199.848H111.228ZM96.38 160.744L102.076 156.136C105.916 158.824 110.588 162.856 112.828 165.864L106.684 170.92C104.764 167.912 100.156 163.624 96.38 160.744ZM125.948 189.8V196.328H142.844V189.8H125.948ZM118.46 183.72H150.844V202.472H118.46V183.72ZM188.54 154.664L196.092 156.84C192.572 163.944 186.876 170.856 181.5 175.08C180.092 173.672 177.02 171.24 175.228 170.088C180.604 166.504 185.724 160.616 188.54 154.664ZM188.028 161.384H232.124V168.168H186.172L188.028 161.384ZM176.572 176.296H234.428V183.144H176.572V176.296ZM177.66 191.336H233.532V198.184H177.66V191.336ZM196.604 163.816H203.068V194.92H196.604V163.816ZM185.276 163.816H192.06V194.984H185.276V163.816ZM207.74 163.816H214.14V194.984H207.74V163.816ZM219.004 163.816H226.044V194.984H219.004V163.816ZM194.684 201.768L201.788 200.936C202.62 204.84 203.388 209.896 203.452 213.032L195.9 214.12C195.9 210.984 195.452 205.736 194.684 201.768ZM207.42 201.896L214.652 200.68C216.252 204.456 217.852 209.512 218.428 212.648L210.748 214.184C210.3 211.048 208.892 205.864 207.42 201.896ZM220.156 201.576L227.516 199.272C230.396 203.176 234.044 208.616 235.644 212.2L227.836 214.824C226.428 211.304 223.036 205.672 220.156 201.576ZM183.164 199.528L190.652 201.32C189.18 206.248 186.428 211.496 183.356 214.824L175.932 211.88C178.876 209.192 181.692 204.2 183.164 199.528ZM257.852 156.648H312.892V162.088H257.852V156.648ZM271.42 169.448H299.772V172.712H271.42V169.448ZM271.42 174.504H299.772V177.704H271.42V174.504ZM274.94 198.824C282.364 205.288 298.044 208.04 315.644 208.616C314.236 210.152 312.572 213.032 311.74 214.888C293.564 213.8 278.204 210.024 268.988 201.384L274.94 198.824ZM296.892 196.456H298.364L299.708 196.136L304.316 198.824C295.932 210.536 278.332 213.864 259.068 214.952C258.62 213.16 257.468 210.6 256.444 209C274.044 208.552 290.556 205.8 296.892 197.288V196.456ZM277.116 192.296L284.22 193.896C278.908 199.208 271.996 203.176 262.588 206.376C261.628 204.84 259.644 202.536 258.236 201.512C267.004 199.208 273.404 195.816 277.116 192.296ZM281.148 159.208L290.108 158.696C289.148 161.704 287.74 164.264 286.78 166.184L279.548 165.992C280.188 163.752 280.892 161.192 281.148 159.208ZM265.916 164.008H305.404V182.504H297.66V167.656H273.212V182.504H265.916V164.008ZM257.724 179.624H313.724V189.736H306.876V184.04H264.252V189.736H257.724V179.624ZM275.9 196.456H298.812V200.872H271.484L275.9 196.456ZM273.98 185.576H280.124V188.52C280.124 189.928 280.508 190.056 282.812 190.056C283.836 190.056 288.892 190.056 290.236 190.056C291.9 190.056 292.284 189.544 292.54 186.408C293.756 187.176 295.932 187.88 297.532 188.2C296.956 193.128 295.42 194.408 291.004 194.408C289.596 194.408 283.324 194.408 282.044 194.408C275.644 194.408 273.98 193.192 273.98 188.584V185.576ZM268.668 185.32L273.788 187.816C271.932 191.016 269.244 194.216 265.404 196.264L260.732 192.488C264.188 190.888 267.068 188.072 268.668 185.32ZM280.828 185.512L284.668 182.952C286.844 183.912 289.404 185.576 290.684 186.92L286.652 189.8C285.372 188.456 282.876 186.536 280.828 185.512ZM296.38 187.816L301.244 184.616C304.444 186.792 308.54 190.12 310.588 192.424L305.404 196.008C303.548 193.704 299.58 190.184 296.38 187.816ZM357.564 205.736H395.388V212.84H357.564V205.736ZM367.164 173.608H385.468V180.52H367.164V173.608ZM367.164 189.544H385.468V196.456H367.164V189.544ZM363.516 157.864H389.884V209.832H382.076V164.968H370.94V209.832H363.516V157.864ZM345.148 160.616H352.444V214.696H345.148V160.616ZM335.548 172.648H360.444V179.816H335.548V172.648ZM345.596 175.528L350.076 177.512C347.644 186.664 343.228 198.056 338.364 204.392C337.596 202.152 335.932 198.952 334.716 197.032C339.132 191.912 343.612 182.632 345.596 175.528ZM356.732 155.24L361.02 161.512C354.364 163.944 345.596 165.544 338.108 166.44C337.788 164.712 336.828 162.152 336.06 160.488C343.356 159.4 351.42 157.416 356.732 155.24ZM352.444 180.584C354.108 182.184 359.932 189.16 361.212 190.888L356.796 196.968C355.196 193.448 351.164 186.6 349.116 183.656L352.444 180.584ZM422.14 157.8H429.884V176.68C429.884 187.816 428.796 204.52 421.756 214.952C420.284 213.672 416.892 211.688 414.908 210.92C421.564 201.192 422.14 186.856 422.14 176.68V157.8ZM427.452 157.8H470.716V175.656H427.452V168.936H462.972V164.52H427.452V157.8ZM430.524 180.968H474.364V187.816H430.524V180.968ZM436.732 206.184H466.044V212.904H436.732V206.184ZM447.484 175.144H455.164V195.752H447.484V175.144ZM433.34 193.128H470.204V214.696H462.524V199.848H440.7V214.76H433.34V193.128ZM524.284 182.184H555.004V187.368H524.284V182.184ZM522.876 208.616H555.644V213.992H522.876V208.616ZM532.732 154.664H538.108V163.432H532.732V154.664ZM540.86 154.664H546.236V163.432H540.86V154.664ZM532.668 193.832V197.416H546.364V193.832H532.668ZM526.524 189.352H552.828V201.896H526.524V189.352ZM531.196 172.264V175.144H547.836V172.264H531.196ZM531.196 164.84V167.72H547.836V164.84H531.196ZM525.628 160.04H553.724V180.008H525.628V160.04ZM528.764 203.304L533.948 201.448C535.484 203.624 536.764 206.632 537.212 208.744L531.708 210.856C531.324 208.808 530.172 205.608 528.764 203.304ZM544.316 201.32L550.652 202.792C548.988 205.672 547.324 208.552 546.108 210.536L541.308 209.064C542.396 206.824 543.676 203.56 544.316 201.32ZM504.06 190.696H518.076V195.752H504.06V190.696ZM504.06 198.632H518.076V203.816H504.06V198.632ZM500.412 182.76H517.692V187.88H506.812V214.824H500.412V182.76ZM513.724 182.76H520.188V208.36C520.188 211.112 519.804 212.712 518.076 213.672C516.412 214.696 514.236 214.76 511.164 214.76C510.972 213.032 510.204 210.536 509.436 208.936C510.908 209 512.444 209 512.956 209C513.532 209 513.724 208.808 513.724 208.232V182.76ZM500.22 156.648H520.444V177.32H514.684V162.088H505.724V177.32H500.22V156.648ZM496.508 174.952H524.348V185H518.588V180.136H502.012V185H496.508V174.952ZM507.9 164.712H518.524V169H512.06V176.68H507.9V164.712ZM533.948 162.216H538.108V177.64H533.948V162.216ZM540.86 162.216H545.02V177.64H540.86V162.216ZM609.532 169.896H626.428V175.528H609.532V169.896ZM607.996 183.144V189.224H611.644V183.144H607.996ZM603.068 178.344H616.892V194.024H603.068V178.344ZM624.188 183.144V189.224H628.22V183.144H624.188ZM619.196 178.344H633.532V194.024H619.196V178.344ZM607.228 195.176L613.564 195.496C612.668 204.328 609.98 210.856 604.22 215.016C603.388 213.864 601.084 211.56 599.676 210.6C604.668 207.4 606.652 202.024 607.228 195.176ZM607.484 204.584L611.452 200.744C613.82 203.112 616.956 206.312 618.3 208.424L614.204 212.84C612.86 210.536 609.852 207.08 607.484 204.584ZM623.164 195.112L629.564 195.432C628.668 204.264 625.916 210.792 620.156 214.952C619.324 213.8 616.956 211.496 615.548 210.472C620.476 207.272 622.524 201.96 623.164 195.112ZM622.972 204.84L627.58 201.576C630.46 204.392 634.108 208.488 635.836 211.048L630.972 214.76C629.372 212.072 625.852 207.912 622.972 204.84ZM617.724 161.512C614.716 166.632 609.02 172.648 603.004 176.104C602.3 174.184 600.764 171.368 599.548 169.704C605.628 166.568 611.324 160.168 614.076 154.792H620.924C624.764 160.744 630.524 166.504 636.412 169.128C635.004 170.984 633.468 173.8 632.508 175.912C626.876 172.712 620.924 166.76 617.724 161.512ZM581.82 166.888H599.292V172.584H581.82V166.888ZM581.82 176.488H599.484V182.12H581.82V176.488ZM578.044 186.152H597.628V191.976H578.044V186.152ZM587.964 160.616H593.788V189.48H587.964V160.616ZM590.204 195.176L593.02 194.28C594.3 196.776 595.516 200.168 595.964 202.408L592.956 203.496C592.572 201.192 591.42 197.8 590.204 195.176ZM586.3 195.752L589.372 195.176C590.396 198.504 591.228 202.792 591.356 205.544L588.092 206.184C587.964 203.368 587.26 199.016 586.3 195.752ZM582.332 196.2L585.596 195.816C586.172 199.656 586.3 204.456 586.172 207.592L582.652 208.04C582.908 204.776 582.78 199.976 582.332 196.2ZM577.596 194.856L581.756 195.624C581.5 201.512 580.924 207.528 578.556 211.24L574.652 209.192C576.764 205.864 577.404 200.36 577.596 194.856ZM578.044 156.968H600.444V162.984H584.06V189.544H578.044V156.968ZM595.132 186.152H601.148C601.148 186.152 601.148 187.816 601.084 188.648C600.7 204.584 600.316 210.6 598.908 212.52C597.884 213.992 596.796 214.504 595.26 214.76C593.98 214.952 591.868 215.016 589.756 214.952C589.628 213.224 589.052 210.792 588.284 209.192C589.948 209.448 591.292 209.448 592.06 209.448C592.764 209.448 593.212 209.32 593.66 208.616C594.492 207.464 594.812 202.28 595.132 187.24V186.152Z" fill="white"/>
</g>
<defs>
<filter id="filter0_d_246_325" x="0.781738" y="0.151978" width="659.756" height="224.864" filterUnits="userSpaceOnUse" color-interpolation-filters="sRGB">
<feFlood flood-opacity="0" result="BackgroundImageFix"/>
<feColorMatrix in="SourceAlpha" type="matrix" values="0 0 0 0 0 0 0 0 0 0 0 0 0 0 0 0 0 0 127 0" result="hardAlpha"/>
<feOffset dx="5" dy="5"/>
<feGaussianBlur stdDeviation="2.5"/>
<feComposite in2="hardAlpha" operator="out"/>
<feColorMatrix type="matrix" values="0 0 0 0 0 0 0 0 0 0 0 0 0 0 0 0 0 0 0.5 0"/>
<feBlend mode="normal" in2="BackgroundImageFix" result="effect1_dropShadow_246_325"/>
<feBlend mode="normal" in="SourceGraphic" in2="effect1_dropShadow_246_325" result="shape"/>
</filter>
</defs>
</svg>
